# xmcd CD database file
#
# Track frame offsets:
#	182
#	14587
#	41030
#	54300
#	80337
#	98877
#	119435
#	146212
#	165865
#	187262
#
# Disc length: 2776 seconds
#
# Revision: 0
# Processed by: cddbd v1.4PL0 Copyright (c) Steve Scherf et al.
# Submitted via: CDex 1.50
#
DISCID=860ad60a
DTITLE=Flanagan-Ingram Quartet - Zanzibar
DYEAR=1995
DGENRE=Jazz
TTITLE0=Don't Look At Me Like That
TTITLE1=Po-Town
TTITLE2=Walk Between Raindrops
TTITLE3=Born To Be Blue
TTITLE4=Pent-Up House
TTITLE5=Waiting for Dusko
TTITLE6=It's Your Dance
TTITLE7=Glorybound
TTITLE8=A Sleepin' Bee
TTITLE9=Zanzibar
EXTD=YEAR: 1995
EXTT0=
EXTT1=
EXTT2=
EXTT3=
EXTT4=
EXTT5=
EXTT6=
EXTT7=
EXTT8=
EXTT9=
PLAYORDER=
